<mxfile host="app.diagrams.net" modified="2024-05-29T18:00:22.529Z" agent="Mozilla/5.0 (Windows NT 10.0; Win64; x64) AppleWebKit/537.36 (KHTML, like Gecko) Chrome/122.0.0.0 YaBrowser/24.4.0.0 Safari/537.36" version="24.4.10" etag="FlwsclMYe2Pl0k0iLcPG" type="github">
  <diagram name="Страница — 1" id="Bc5Vnm3F6qYXw4b2Wcl2">
    <mxGraphModel>
      <root>
        <mxCell id="0" />
        <mxCell id="1" parent="0" />
      </root>
    </mxGraphModel>
  </diagram>
</mxfile>
